<svg xmlns="http://www.w3.org/2000/svg" width="580" height="160" viewBox="0 0 580 160" role="img" aria-labelledby="title"><title id="title">Wixal single colour logo</title><g transform="translate(8 32) scale(1.16)"><g class="symbol" opacity="1" transform="translate(0 0)"><path d="M9 19H25L41 66L54 31H68L82 66L98 19H114L92 87Q91 91 86 91H79Q74 91 73 87L61 54L49 87Q47 91 42 91H35Q31 91 29 87Z" fill="#f4f0e9"/><path class="fold" d="M82 66L98 19H114L92 87Q91 91 86 91H79Q74 91 73 87L68 73Z" fill="#f4f0e9" opacity="1"/></g></g><g transform="translate(175 58) scale(2.12)"><g fill="none" stroke="#f4f0e9" color="#f4f0e9" stroke-width="7" stroke-linecap="round" stroke-linejoin="round"><g class="letter letter-0" opacity="1"><path d="M4 9 12 36Q13 39 14 36L24 15 34 36Q35 39 36 36L44 9"/></g><g class="letter letter-1" opacity="1"><path d="M63 9v29"/><circle cx="63" cy="-7" r="4" fill="currentColor" stroke="none"/></g><g class="letter letter-2" opacity="1"><path d="m82 9 26 29m0-29-26 29"/></g><g class="letter letter-3" opacity="1"><ellipse cx="136" cy="24" rx="14" ry="15"/><path d="M150 9v29"/></g><g class="letter letter-4" opacity="1"><path d="M171-9v40q0 7 8 7"/></g></g></g></svg>
