<svg xmlns="http://www.w3.org/2000/svg" width="1024" height="1024" viewBox="0 0 1024 1024" role="img" aria-labelledby="title"><title id="title">Wixal app icon</title><defs><linearGradient id="bg" x2="1" y2="1"><stop stop-color="#34303c"/><stop offset="1" stop-color="#17191f"/></linearGradient></defs><rect x="24" y="24" width="976" height="976" rx="220" fill="url(#bg)"/><rect x="43" y="43" width="938" height="938" rx="201" fill="none" stroke="#64566d" stroke-width="3"/><g transform="translate(132 182) scale(6.15)"><g class="symbol" opacity="1" transform="translate(0 0)"><path d="M9 19H25L41 66L54 31H68L82 66L98 19H114L92 87Q91 91 86 91H79Q74 91 73 87L61 54L49 87Q47 91 42 91H35Q31 91 29 87Z" fill="#f4f0e9"/><path class="fold" d="M82 66L98 19H114L92 87Q91 91 86 91H79Q74 91 73 87L68 73Z" fill="#ecabc5" opacity="1"/></g></g></svg>
