<svg xmlns="http://www.w3.org/2000/svg" width="1280" height="640" viewBox="0 0 1280 640" role="img" aria-labelledby="title"><title id="title">Wixal: a workspace for local AI on Mac</title><rect width="1280" height="640" fill="#17191f"/><path d="M64 566h1152" stroke="#343641"/><text x="70" y="91" font-family="Menlo,monospace" font-size="13" fill="#ecabc5" letter-spacing="2">WIXAL / MACOS</text><g transform="translate(52 178) scale(1.22)"><defs><clipPath id="name-reveal" clipPathUnits="userSpaceOnUse"><rect class="name-window" x="148" y="0" width="285" height="160"/></clipPath></defs><g clip-path="url(#name-reveal)"><g class="name-motion" transform="translate(0 0)"><g transform="translate(158 49) scale(2.12)"><g fill="none" stroke="#f4f0e9" color="#f4f0e9" stroke-width="7" stroke-linecap="round" stroke-linejoin="round"><path d="M0 9v29"/><circle cx="0" cy="-7" r="4" fill="currentColor" stroke="none"/><path d="m19 9 26 29m0-29-26 29"/><ellipse cx="73" cy="24" rx="14" ry="15"/><path d="M87 9v29"/><path d="M108-9v40q0 7 8 7"/></g></g></g></g><g transform="translate(8 32) scale(1.16)"><g class="symbol" opacity="1" transform="translate(0 0)"><path d="M9 19H25L41 66L54 31H68L82 66L98 19H114L92 87Q91 91 86 91H79Q74 91 73 87L61 54L49 87Q47 91 42 91H35Q31 91 29 87Z" fill="#f4f0e9"/><path class="fold" d="M82 66L98 19H114L92 87Q91 91 86 91H79Q74 91 73 87L68 73Z" fill="#ecabc5" opacity="1"/></g></g></g><text x="72" y="422" font-family="Helvetica,Arial,sans-serif" font-size="40" fill="#f4f0e9" letter-spacing="-1">Local AI for your projects.</text><text x="72" y="478" font-family="Helvetica,Arial,sans-serif" font-size="23" fill="#acaeb9" >Chat, files, and a terminal in one app.</text><text x="72" y="607" font-family="Menlo,monospace" font-size="14" fill="#acaeb9" >github.com/TheJhyeFactor/Wixal</text><g transform="translate(947 202) scale(1.85)"><g class="symbol" opacity="1" transform="translate(0 0)"><path d="M9 19H25L41 66L54 31H68L82 66L98 19H114L92 87Q91 91 86 91H79Q74 91 73 87L61 54L49 87Q47 91 42 91H35Q31 91 29 87Z" fill="#343641"/><path class="fold" d="M82 66L98 19H114L92 87Q91 91 86 91H79Q74 91 73 87L68 73Z" fill="#766070" opacity="1"/></g></g></svg>
